<svg xmlns="http://www.w3.org/2000/svg" viewBox="0 0 436.15 87.16"><defs><style>.a{fill:#fff;}</style></defs><path class="a" d="M433.86,0H344.27A2.3,2.3,0,0,0,342,2.29V84.86a2.3,2.3,0,0,0,2.3,2.3h89.59a2.3,2.3,0,0,0,2.29-2.3V2.29A2.3,2.3,0,0,0,433.86,0ZM422.72,31.46a2.3,2.3,0,0,1-2.3,2.3H409.16l-.07,30.85a2.3,2.3,0,0,1-2.3,2.3H371a2.3,2.3,0,0,1-2.29-2.3V33.77H357.45a2.3,2.3,0,0,1-2.29-2.3V22.59a2.3,2.3,0,0,1,2.29-2.29H380a2.3,2.3,0,0,1,2.3,2.29l-.06,28.56a2.29,2.29,0,0,0,2.29,2.29h8.87a2.29,2.29,0,0,0,2.29-2.29l.05-28.56A2.3,2.3,0,0,1,398,20.3h22.42a2.3,2.3,0,0,1,2.3,2.29Z"/><path class="a" d="M32.82,44.76c0,6.88-3.68,10.11-9.31,10.11s-9.3-3.37-9.3-10.46V17.07H0V44.69C0,60.07,9,67.17,23.37,67.17S47,60.22,47,44.34V17.07H32.82Z"/><path class="a" d="M81.27,17.07H59.19v50.2H73.47V52.93h7.07c12.81,0,22.16-6.24,22.16-18.07v-.14C102.7,23.6,94.31,17.07,81.27,17.07Zm7.15,18.44c0,3.94-3.1,6.52-8.18,6.52H73.47V28.76h6.7c5.15,0,8.25,2.3,8.25,6.6Z"/><path class="a" d="M134.51,17.07H112.43v50.2h14.28V52.93h7.07c12.8,0,22.16-6.24,22.16-18.07v-.14C155.94,23.6,147.54,17.07,134.51,17.07Zm7.14,18.44c0,3.94-3.09,6.52-8.17,6.52h-6.77V28.76h6.7c5.15,0,8.24,2.3,8.24,6.6Z"/><polygon class="a" points="162.79 29.27 178.25 29.27 178.25 67.27 192.53 67.27 192.53 29.27 208 29.27 208 17.07 162.79 17.07 162.79 29.27"/><polygon class="a" points="232.08 47.48 256.81 47.48 256.81 36.51 232.08 36.51 232.08 28.91 259.39 28.91 259.39 17.07 217.94 17.07 217.94 67.27 259.76 67.27 259.76 55.44 232.08 55.44 232.08 47.48"/><path class="a" d="M294.8,55C287.9,55,283,49.36,283,42.17V42c0-7,4.86-12.68,11.76-12.68,4.71,0,7.95,2.19,10.76,5.62l10.28-7.75c-4.37-5.89-10.84-10-20.9-10-14.92,0-26,11-26,25v.13c0,14.33,11.33,24.82,25.4,24.82,10.91,0,17.18-4.59,21.82-10.83l-10.28-7.13C303,52.65,299.93,55,294.8,55Z"/></svg>